<svg width="19" height="20" viewBox="0 0 19 20" fill="none" xmlns="http://www.w3.org/2000/svg">
<path d="M17.9977 15.7505H16.1227V13.8755C16.1227 13.7724 16.0383 13.688 15.9352 13.688H14.8102C14.7071 13.688 14.6227 13.7724 14.6227 13.8755V15.7505H12.7477C12.6446 15.7505 12.5602 15.8349 12.5602 15.938V17.063C12.5602 17.1662 12.6446 17.2505 12.7477 17.2505H14.6227V19.1255C14.6227 19.2287 14.7071 19.313 14.8102 19.313H15.9352C16.0383 19.313 16.1227 19.2287 16.1227 19.1255V17.2505H17.9977C18.1008 17.2505 18.1852 17.1662 18.1852 17.063V15.938C18.1852 15.8349 18.1008 15.7505 17.9977 15.7505ZM5.84537 9.33805C5.82428 9.13414 5.81256 8.92789 5.81256 8.7193C5.81256 8.34664 5.84771 7.98336 5.91334 7.62946C5.92975 7.54508 5.88521 7.45836 5.80787 7.42321C5.48912 7.28024 5.19615 7.08336 4.94303 6.83493C4.64476 6.54572 4.41005 6.19752 4.25388 5.81254C4.09771 5.42756 4.0235 5.01425 4.036 4.59899C4.05709 3.84664 4.35943 3.1318 4.88678 2.59274C5.46568 1.99977 6.24381 1.67633 7.07115 1.68571C7.81881 1.69274 8.54068 1.98102 9.08678 2.49196C9.27193 2.66539 9.43131 2.85758 9.5649 3.06383C9.61178 3.13649 9.70318 3.16696 9.78287 3.13883C10.1954 2.99586 10.6313 2.89508 11.079 2.84821C11.2102 2.83414 11.2852 2.69352 11.2266 2.57633C10.4649 1.0693 8.90865 0.0286749 7.10865 0.00054993C4.51178 -0.0392938 2.34615 2.09117 2.34615 4.68805C2.34615 6.15993 3.0235 7.47243 4.08521 8.33258C3.3399 8.67711 2.65318 9.15289 2.05787 9.74821C0.773496 11.0302 0.0469336 12.7224 5.86058e-05 14.5295C-0.000566953 14.5545 0.00382079 14.5794 0.0129631 14.6026C0.0221054 14.6259 0.0358173 14.6472 0.053291 14.6651C0.0707646 14.683 0.0916465 14.6972 0.114706 14.7069C0.137766 14.7166 0.162536 14.7217 0.187559 14.7216H1.5024C1.60318 14.7216 1.68756 14.642 1.6899 14.5412C1.73443 13.1818 2.28521 11.9091 3.25318 10.9435C3.94225 10.2545 4.786 9.77633 5.70709 9.5443C5.79615 9.51852 5.85709 9.4318 5.84537 9.33805V9.33805ZM16.404 8.7193C16.404 6.15524 14.3438 4.07164 11.7891 4.0318C9.19225 3.99196 7.02896 6.12242 7.02896 8.7193C7.02896 10.1912 7.70865 11.5037 8.76803 12.3638C8.015 12.7129 7.32948 13.1921 6.74303 13.7795C5.45865 15.0615 4.73209 16.7537 4.68521 18.5584C4.68459 18.5834 4.68898 18.6083 4.69812 18.6316C4.70726 18.6548 4.72097 18.6761 4.73845 18.694C4.75592 18.7119 4.7768 18.7261 4.79986 18.7358C4.82292 18.7456 4.84769 18.7506 4.87271 18.7505H6.18521C6.286 18.7505 6.37037 18.6709 6.37271 18.5701C6.41725 17.2107 6.96803 15.938 7.936 14.9724C8.94615 13.9623 10.2868 13.4068 11.7165 13.4068C14.304 13.4068 16.404 11.3091 16.404 8.7193ZM13.8376 10.8404C13.2704 11.4076 12.518 11.7193 11.7165 11.7193C10.9149 11.7193 10.1626 11.4076 9.59537 10.8404C9.31233 10.5588 9.0887 10.2233 8.93773 9.85374C8.78676 9.48416 8.71151 9.08803 8.71646 8.68883C8.7235 7.92008 9.03053 7.17711 9.56725 6.62633C10.1297 6.04977 10.8821 5.72868 11.686 5.7193C12.4805 5.71227 13.2516 6.02164 13.8188 6.57711C14.4001 7.14664 14.7188 7.90836 14.7188 8.7193C14.7165 9.52086 14.4047 10.2732 13.8376 10.8404V10.8404Z" fill="black"/>
</svg>
